# Blender v2.77 (sub 0) OBJ File: 'pillarClassic.blend'
# www.blender.org
mtllib pillarc.mtl
o lp_col_Cube.001
v -1.408977 0.000000 1.408977
v -1.408977 10.000000 1.408977
v -1.408977 0.000000 -1.408977
v -1.408977 10.000000 -1.408977
v 1.408977 0.000000 1.408977
v 1.408977 10.000000 1.408977
v 1.408977 0.000000 -1.408977
v 1.408977 10.000000 -1.408977
v -1.000000 0.774350 1.000000
v -1.000000 0.774350 -1.000000
v 1.000000 0.774350 -1.000000
v 1.000000 0.774350 1.000000
v -1.000000 9.078201 1.000000
v -1.000000 9.078201 -1.000000
v 1.000000 9.078201 -1.000000
v 1.000000 9.078201 1.000000
v -0.826608 9.027580 -0.826608
v -0.826608 0.824972 -0.826608
v 0.826608 9.027580 -0.826608
v 0.826608 0.824972 -0.826608
v 0.826608 9.027580 0.826608
v 0.826608 0.824972 0.826608
v -0.826608 0.824972 0.826608
v -0.826608 9.027580 0.826608
vt 0.8366 0.0861
vt 0.6520 0.0861
vt 0.6143 0.0053
vt 0.8743 0.0053
vt 0.8366 0.0861
vt 0.6520 0.0861
vt 0.6143 0.0053
vt 0.8743 0.0053
vt 0.8366 0.0861
vt 0.6520 0.0861
vt 0.6143 0.0053
vt 0.8743 0.0053
vt 0.8366 0.0861
vt 0.6520 0.0861
vt 0.6143 0.0053
vt 0.8743 0.0053
vt 0.0002 0.9998
vt 0.0002 0.7875
vt 0.2125 0.7875
vt 0.2125 0.9998
vt 0.2125 0.7875
vt 0.2125 0.9998
vt 0.0002 0.9998
vt 0.0002 0.7875
vt 0.8206 0.1028
vt 0.6680 0.1028
vt 0.8206 0.1028
vt 0.6680 0.1028
vt 0.8206 0.1028
vt 0.6680 0.1028
vt 0.8206 0.1028
vt 0.6680 0.1028
vt 0.8743 0.9696
vt 0.6143 0.9696
vt 0.6520 0.8765
vt 0.8366 0.8765
vt 0.8743 0.9696
vt 0.6143 0.9696
vt 0.6520 0.8765
vt 0.8366 0.8765
vt 0.8743 0.9696
vt 0.6143 0.9696
vt 0.6520 0.8765
vt 0.8366 0.8765
vt 0.8743 0.9696
vt 0.6143 0.9696
vt 0.6520 0.8765
vt 0.8366 0.8765
vt 0.6680 0.8598
vt 0.8206 0.8598
vt 0.6680 0.8598
vt 0.8206 0.8598
vt 0.6680 0.8598
vt 0.8206 0.8598
vt 0.6680 0.8598
vt 0.8206 0.8598
vn -0.8842 0.4670 0.0000
vn 0.0000 0.4670 -0.8842
vn 0.8842 0.4670 0.0000
vn 0.0000 0.4670 0.8842
vn 0.0000 -1.0000 0.0000
vn 0.0000 1.0000 0.0000
vn 0.0000 0.9599 0.2803
vn 0.2803 0.9599 0.0000
vn 0.0000 0.9599 -0.2803
vn -0.2803 0.9599 0.0000
vn -0.9141 -0.4055 0.0000
vn 0.0000 -0.4055 -0.9141
vn 0.9141 -0.4055 0.0000
vn 0.0000 -0.4055 0.9141
vn -0.2802 -0.9599 0.0000
vn -1.0000 0.0000 0.0000
vn 0.0000 -0.9599 -0.2802
vn 0.0000 0.0000 -1.0000
vn 0.2802 -0.9599 0.0000
vn 1.0000 0.0000 0.0000
vn 0.0000 -0.9599 0.2802
vn 0.0000 0.0000 1.0000
usemtl Material
s off
f 9/1/1 10/2/1 3/3/1 1/4/1
f 10/5/2 11/6/2 7/7/2 3/8/2
f 11/9/3 12/10/3 5/11/3 7/12/3
f 12/13/4 9/14/4 1/15/4 5/16/4
f 1/17/5 3/18/5 7/19/5 5/20/5
f 6/21/6 8/22/6 4/23/6 2/24/6
f 22/25/7 23/26/7 9/14/7 12/13/7
f 20/27/8 22/28/8 12/10/8 11/9/8
f 18/29/9 20/30/9 11/6/9 10/5/9
f 23/31/10 18/32/10 10/2/10 9/1/10
f 2/33/11 4/34/11 14/35/11 13/36/11
f 4/37/12 8/38/12 15/39/12 14/40/12
f 8/41/13 6/42/13 16/43/13 15/44/13
f 6/45/14 2/46/14 13/47/14 16/48/14
f 13/36/15 14/35/15 17/49/15 24/50/15
f 24/50/16 17/49/16 18/32/16 23/31/16
f 14/40/17 15/39/17 19/51/17 17/52/17
f 17/52/18 19/51/18 20/30/18 18/29/18
f 15/44/19 16/43/19 21/53/19 19/54/19
f 19/54/20 21/53/20 22/28/20 20/27/20
f 16/48/21 13/47/21 24/55/21 21/56/21
f 21/56/22 24/55/22 23/26/22 22/25/22
